{
	"asset":{
		"generator":"Khronos glTF Blender I/O v3.6.27",
		"version":"2.0"
	},
	"scene":0,
	"scenes":[
		{
			"name":"Scene",
			"nodes":[
				0
			]
		}
	],
	"nodes":[
		{
			"mesh":0,
			"name":"NFT",
			"translation":[
				-0.5799999833106995,
				0,
				0
			]
		}
	],
	"materials":[
		{
			"doubleSided":true,
			"name":"nft",
			"pbrMetallicRoughness":{
				"baseColorTexture":{
					"index":0
				},
				"metallicFactor":0
			}
		}
	],
	"meshes":[
		{
			"name":"Cube.006",
			"primitives":[
				{
					"attributes":{
						"POSITION":0,
						"NORMAL":1,
						"TEXCOORD_0":2
					},
					"indices":3,
					"material":0
				}
			]
		}
	],
	"textures":[
		{
			"sampler":0,
			"source":0
		}
	],
	"images":[
		{
			"bufferView":4,
			"mimeType":"image/jpeg",
			"name":"nft"
		}
	],
	"accessors":[
		{
			"bufferView":0,
			"componentType":5126,
			"count":1334,
			"max":[
				2.124785900115967,
				1.2000000476837158,
				1.124049425125122
			],
			"min":[
				-1.545060634613037,
				0,
				-1.9705626964569092
			],
			"type":"VEC3"
		},
		{
			"bufferView":1,
			"componentType":5126,
			"count":1334,
			"type":"VEC3"
		},
		{
			"bufferView":2,
			"componentType":5126,
			"count":1334,
			"type":"VEC2"
		},
		{
			"bufferView":3,
			"componentType":5123,
			"count":2571,
			"type":"SCALAR"
		}
	],
	"bufferViews":[
		{
			"buffer":0,
			"byteLength":16008,
			"byteOffset":0,
			"target":34962
		},
		{
			"buffer":0,
			"byteLength":16008,
			"byteOffset":16008,
			"target":34962
		},
		{
			"buffer":0,
			"byteLength":10672,
			"byteOffset":32016,
			"target":34962
		},
		{
			"buffer":0,
			"byteLength":5142,
			"byteOffset":42688,
			"target":34963
		},
		{
			"buffer":0,
			"byteLength":97003,
			"byteOffset":47832
		}
	],
	"samplers":[
		{
			"magFilter":9729,
			"minFilter":9987
		}
	],
	"buffers":[
		{
			"byteLength":144836,
			"uri":"data:application/octet-stream;base64,"
		}
	]
}
